<svg width="26" height="26" viewBox="0 0 26 26" fill="none" xmlns="http://www.w3.org/2000/svg">
<path d="M1 25C1.02012 23.2862 1.37679 21.5932 2.04974 20.017C2.78455 18.5455 5.85729 17.5255 9.71432 16.0975C10.7566 15.7105 10.5856 12.9865 10.1237 12.478C9.3879 11.681 8.82899 10.7373 8.48369 9.70892C8.13839 8.68052 8.01452 7.59068 8.12022 6.511C8.05414 5.82382 8.13016 5.13038 8.34355 4.47385C8.55694 3.81732 8.90313 3.21175 9.36058 2.69481C9.81802 2.17787 10.3769 1.76063 11.0025 1.46906C11.6281 1.17749 12.307 1.01782 12.997 1C13.6875 1.01701 14.367 1.17609 14.9933 1.4673C15.6196 1.75852 16.1793 2.17563 16.6374 2.69266C17.0955 3.20969 17.4422 3.81554 17.6559 4.47247C17.8697 5.1294 17.9459 5.82333 17.8798 6.511C17.9855 7.59068 17.8616 8.68052 17.5163 9.70892C17.171 10.7373 16.6121 11.681 15.8763 12.478C15.4144 12.9865 15.2434 15.7105 16.2857 16.0975C20.1427 17.5255 23.2154 18.5455 23.9503 20.017C24.6232 21.5932 24.9799 23.2862 25 25H1Z" stroke="black" stroke-width="1.2" stroke-linecap="round" stroke-linejoin="round"/>
</svg>
