<svg width="20" height="21" viewBox="0 0 20 21" fill="none" xmlns="http://www.w3.org/2000/svg">
<path fill-rule="evenodd" clip-rule="evenodd" d="M12.9664 14.9225C11.6242 15.8805 9.98198 16.4439 8.20835 16.4439C3.675 16.4439 0 12.7628 0 8.22197C0 3.6811 3.675 0 8.20835 0C12.7417 0 16.4167 3.6811 16.4167 8.22197C16.4167 10.4924 15.4979 12.5479 14.0125 14.0358L19.8041 19.837C20.0697 20.103 20.0633 20.5296 19.7966 20.7968C19.5281 21.0657 19.1009 21.0672 18.8384 20.8043L12.9664 14.9225ZM8.20835 15.4767C12.2084 15.4767 15.451 12.2286 15.451 8.22197C15.451 4.21532 12.2084 0.967291 8.20835 0.967291C4.20834 0.967291 0.965688 4.21532 0.965688 8.22197C0.965688 12.2286 4.20834 15.4767 8.20835 15.4767Z" fill="black"/>
</svg>
