<svg width="18" height="18" viewBox="0 0 18 18" fill="none" xmlns="http://www.w3.org/2000/svg">
<path d="M14.3238 7.97868C11.4227 6.25578 6.63744 6.0974 3.86799 6.93793C3.42314 7.07286 2.9529 6.82186 2.81821 6.37709C2.68344 5.93208 2.9342 5.46208 3.37921 5.32691C6.55845 4.36193 11.8432 4.54828 15.183 6.5308C15.5831 6.76834 15.7142 7.28492 15.4771 7.68423C15.2398 8.08427 14.7228 8.21621 14.3237 7.97868H14.3238ZM14.2287 10.5304C14.0252 10.8607 13.5933 10.9643 13.2635 10.7615C10.845 9.27486 7.15685 8.84411 4.29543 9.71269C3.92441 9.82473 3.53244 9.61565 3.41975 9.2452C3.36604 9.06711 3.38513 8.875 3.47284 8.71097C3.56055 8.54694 3.70972 8.42438 3.88766 8.37017C7.15636 7.37818 11.22 7.85858 13.9979 9.56575C14.3277 9.76888 14.4315 10.2009 14.2287 10.5304ZM13.1275 12.9811C13.0891 13.044 13.0388 13.0988 12.9792 13.1423C12.9197 13.1858 12.8522 13.2171 12.7805 13.2344C12.7089 13.2517 12.6345 13.2548 12.5617 13.2433C12.4889 13.2319 12.419 13.2062 12.3562 13.1678C10.2427 11.8761 7.58259 11.5844 4.44978 12.3C4.378 12.3164 4.30369 12.3185 4.23109 12.3062C4.15849 12.2939 4.08903 12.2674 4.02667 12.2282C3.96431 12.1891 3.91028 12.138 3.86766 12.078C3.82504 12.0179 3.79467 11.9501 3.77828 11.8783C3.76177 11.8065 3.7596 11.7321 3.77187 11.6594C3.78415 11.5868 3.81063 11.5173 3.84981 11.4549C3.88899 11.3925 3.9401 11.3384 4.0002 11.2958C4.06031 11.2532 4.12823 11.2228 4.20008 11.2065C7.62837 10.4229 10.5691 10.7601 12.9413 12.2097C13.0042 12.2481 13.0589 12.2985 13.1023 12.3581C13.1457 12.4177 13.1769 12.4852 13.1942 12.5568C13.2115 12.6284 13.2145 12.7028 13.2031 12.7756C13.1916 12.8484 13.166 12.9182 13.1275 12.9811H13.1275ZM8.99984 0C4.02952 0 0 4.02936 0 8.99984C0 13.9708 4.02952 18 8.99992 18C13.9706 18 18 13.9708 18 8.99984C18 4.02944 13.9706 0 8.99992 0" fill="#191414"/>
</svg>
