<svg width="96" height="18" viewBox="0 0 96 18" fill="none" xmlns="http://www.w3.org/2000/svg">
<path d="M75.1805 6.35911L70.8112 5.69357L68.8583 1.55658C68.5084 0.819169 67.4946 0.809795 67.1417 1.55658L65.1888 5.69357L60.8195 6.35911C60.0359 6.47784 59.7219 7.48709 60.2901 8.06515L63.4512 11.2835L62.7036 15.8298C62.569 16.6516 63.3974 17.2671 64.0912 16.8828L68 14.7362L71.9088 16.8828C72.6026 17.264 73.431 16.6516 73.2964 15.8298L72.5488 11.2835L75.7099 8.06515C76.2781 7.48709 75.9641 6.47784 75.1805 6.35911ZM71.0086 10.7586L71.7174 15.083L68 13.0427L64.2826 15.083L64.9914 10.7586L61.9828 7.69644L66.1398 7.06527L68 3.12826L69.8602 7.06527L74.0172 7.69644L71.0086 10.7586Z" fill="black"/>
<path d="M95.1805 6.35911L90.8112 5.69357L88.8583 1.55658C88.5084 0.819169 87.4946 0.809795 87.1417 1.55658L85.1888 5.69357L80.8195 6.35911C80.0359 6.47784 79.7219 7.48709 80.2901 8.06515L83.4512 11.2835L82.7036 15.8298C82.569 16.6516 83.3974 17.2671 84.0912 16.8828L88 14.7362L91.9088 16.8828C92.6026 17.264 93.431 16.6516 93.2964 15.8298L92.5488 11.2835L95.7099 8.06515C96.2781 7.48709 95.9641 6.47784 95.1805 6.35911ZM91.0086 10.7586L91.7174 15.083L88 13.0427L84.2826 15.083L84.9914 10.7586L81.9828 7.69644L86.1398 7.06527L88 3.12826L89.8602 7.06527L94.0172 7.69644L91.0086 10.7586Z" fill="black"/>
<path d="M7.14168 1.55658L5.18879 5.69357L0.819452 6.35911C0.035902 6.47784 -0.278116 7.48709 0.290107 8.06515L3.45122 11.2835L2.70356 15.8298C2.56898 16.6516 3.39739 17.2671 4.09122 16.8828L8 14.7362L11.9088 16.8828C12.6026 17.264 13.431 16.6516 13.2964 15.8298L12.5488 11.2835L15.7099 8.06515C16.2781 7.48709 15.9641 6.47784 15.1805 6.35911L10.8112 5.69357L8.85832 1.55658C8.50841 0.819169 7.49458 0.809795 7.14168 1.55658Z" fill="black"/>
<path d="M27.1417 1.55658L25.1888 5.69357L20.8195 6.35911C20.0359 6.47784 19.7219 7.48709 20.2901 8.06515L23.4512 11.2835L22.7036 15.8298C22.569 16.6516 23.3974 17.2671 24.0912 16.8828L28 14.7362L31.9088 16.8828C32.6026 17.264 33.431 16.6516 33.2964 15.8298L32.5488 11.2835L35.7099 8.06515C36.2781 7.48709 35.9641 6.47784 35.1805 6.35911L30.8112 5.69357L28.8583 1.55658C28.5084 0.819169 27.4946 0.809795 27.1417 1.55658Z" fill="black"/>
<path d="M48 1C47.6591 1 47.3181 1.1844 47.1417 1.55633L45.1888 5.69439L40.8195 6.35698C40.0359 6.47575 39.7219 7.48526 40.2901 8.06347L43.4512 11.2827L42.7036 15.8302C42.569 16.6459 43.3914 17.2679 44.0912 16.8834L48 14.7394V1Z" fill="black"/>
<path d="M48 13.0423L51.7174 15.0863L51.0086 10.7607L54.0172 7.69779L49.8602 7.06646L48 3.12842V1C48.3409 1 48.6819 1.1844 48.8583 1.55633L50.8112 5.69439L55.1805 6.35698C55.9641 6.47575 56.2781 7.48526 55.7099 8.06347L52.5488 11.2827L53.2964 15.8302C53.431 16.6459 52.6086 17.2679 51.9088 16.8834L48 14.7394V13.0423Z" fill="black"/>
</svg>
