<svg width="32" height="32" viewBox="0 0 32 32" fill="none" xmlns="http://www.w3.org/2000/svg">
<path d="M24.9832 9.04762C24.957 8.71047 24.673 8.45056 24.3315 8.45056H1.66918C1.32988 8.45056 1.04747 8.70683 1.01828 9.04182C1.00805 9.1559 1 9.27066 1 9.38761V24.8696C1 27.1474 2.87326 28.9999 5.1749 28.9999H20.8251C23.1267 28.9999 25 27.1474 25 24.8696V9.38761C25 9.27286 24.992 9.1595 24.9832 9.04762ZM23.6923 24.8696C23.6923 26.4341 22.4057 27.7062 20.8251 27.7062H5.1749C3.59428 27.7062 2.30771 26.4341 2.30771 24.8696V9.74424H23.6923V24.8696Z" fill="black"/>
<path d="M8.89426 7.71206C8.90518 7.71206 8.91617 7.71206 8.92632 7.71134C9.28754 7.69402 9.56558 7.39079 9.54808 7.03417C9.47732 5.58305 10.0333 4.43085 11.1148 3.78974C12.2422 3.12121 13.7587 3.12121 14.8862 3.78974C15.9669 4.43009 16.5237 5.58229 16.4522 7.03417C16.4354 7.39079 16.7135 7.69402 17.0739 7.71134C17.4293 7.72506 17.7409 7.45363 17.7585 7.09628C17.8526 5.17446 17.0506 3.56455 15.5582 2.67942C14.028 1.77341 11.973 1.77341 10.4427 2.68014C8.94969 3.56451 8.1477 5.17442 8.24182 7.09628C8.25864 7.44279 8.54764 7.71206 8.89426 7.71206Z" fill="black"/>
<circle cx="22" cy="21" r="8" fill="#EC7646"/>
</svg>
