<svg width="10" height="18" viewBox="0 0 10 18" fill="none" xmlns="http://www.w3.org/2000/svg">
<path d="M2.4453 3.48603C2.4453 3.93963 2.4453 5.96427 2.4453 5.96427H0.5V8.99468H2.4453V18H6.44137V8.99494H9.12291C9.12291 8.99494 9.37405 7.54188 9.49579 5.9531C9.14677 5.9531 6.45648 5.9531 6.45648 5.9531C6.45648 5.9531 6.45648 4.1901 6.45648 3.88109C6.45648 3.5714 6.89217 3.15483 7.32279 3.15483C7.75261 3.15483 8.65978 3.15483 9.5 3.15483C9.5 2.74223 9.5 1.31663 9.5 1.0825e-08C8.37833 1.0825e-08 7.10224 1.0825e-08 6.53974 1.0825e-08C2.34652 -0.000209237 2.4453 3.03321 2.4453 3.48603Z" fill="black"/>
</svg>
