<svg width="40" height="40" viewBox="0 0 40 40" fill="none" xmlns="http://www.w3.org/2000/svg">
<path d="M39.972 10.4409C39.9283 9.94139 39.4551 9.55634 38.8859 9.55634H1.1153C0.549799 9.55634 0.0791109 9.936 0.0304585 10.4323C0.01341 10.6013 0 10.7713 0 10.9446V33.881C0 37.2555 3.12211 40 6.95817 40H33.0419C36.8779 40 40 37.2555 40 33.881V10.9446C40 10.7746 39.9867 10.6066 39.972 10.4409ZM37.8205 33.881C37.8205 36.1988 35.6762 38.0834 33.0419 38.0834H6.95817C4.32379 38.0834 2.17952 36.1988 2.17952 33.881V11.4729H37.8205V33.881Z" fill="black"/>
<path d="M13.1584 8.46237C13.1766 8.46237 13.1949 8.46237 13.2118 8.4613C13.8139 8.43565 14.2773 7.98641 14.2481 7.45807C14.1302 5.30826 15.0569 3.60128 16.8594 2.65149C18.7384 1.66106 21.2658 1.66106 23.145 2.65149C24.9462 3.60015 25.8742 5.30713 25.7551 7.45807C25.7271 7.98641 26.1905 8.43565 26.7913 8.4613C27.3836 8.48163 27.9029 8.07951 27.9322 7.5501C28.089 4.70294 26.7524 2.31787 24.2651 1.00655C21.7147 -0.335696 18.2897 -0.335695 15.7392 1.00762C13.2508 2.31781 11.9141 4.70288 12.071 7.5501C12.099 8.06345 12.5807 8.46237 13.1584 8.46237Z" fill="black"/>
</svg>
