<svg width="24" height="24" viewBox="0 0 24 24" fill="none" xmlns="http://www.w3.org/2000/svg">
<g id="delete" clip-path="url(#clip0_229_1279)">
<g id="Grupo 207">
<rect id="Rectangle 126" width="24" height="24" fill="white"/>
<path id="trash-alt" d="M14.5937 18.2558H15.1328C15.2043 18.2558 15.2728 18.2274 15.3234 18.1768C15.3739 18.1263 15.4023 18.0577 15.4023 17.9862V8.81638C15.4023 8.7449 15.3739 8.67634 15.3234 8.62579C15.2728 8.57524 15.2043 8.54684 15.1328 8.54684H14.5937C14.5222 8.54684 14.4537 8.57524 14.4031 8.62579C14.3526 8.67634 14.3242 8.7449 14.3242 8.81638V17.9853C14.324 18.0208 14.3309 18.0559 14.3444 18.0887C14.3579 18.1215 14.3777 18.1514 14.4028 18.1765C14.4278 18.2016 14.4576 18.2216 14.4903 18.2352C14.5231 18.2488 14.5582 18.2558 14.5937 18.2558ZM9.20016 18.2558H9.73923C9.81072 18.2558 9.87928 18.2274 9.92983 18.1768C9.98038 18.1263 10.0088 18.0577 10.0088 17.9862V8.81638C10.0088 8.7449 9.98038 8.67634 9.92983 8.62579C9.87928 8.57524 9.81072 8.54684 9.73923 8.54684H9.20016C9.12867 8.54684 9.06011 8.57524 9.00957 8.62579C8.95902 8.67634 8.93062 8.7449 8.93062 8.81638V17.9853C8.9305 18.0208 8.93738 18.0559 8.95087 18.0887C8.96436 18.1215 8.9842 18.1514 9.00924 18.1765C9.03428 18.2016 9.06403 18.2216 9.0968 18.2352C9.12956 18.2488 9.16468 18.2558 9.20016 18.2558ZM19.4463 5.85054H15.9386L14.8097 4.33854C14.6591 4.13807 14.4639 3.97535 14.2397 3.86322C14.0154 3.75108 13.7681 3.6926 13.5174 3.69238H10.8183C10.5676 3.6926 10.3203 3.75108 10.096 3.86322C9.87176 3.97535 9.67662 4.13807 9.526 4.33854L8.39062 5.84961H4.88477C4.81329 5.84961 4.74473 5.87801 4.69418 5.92856C4.64363 5.97911 4.61523 6.04767 4.61523 6.11915V6.65823C4.61523 6.72972 4.64363 6.79827 4.69418 6.84882C4.74473 6.89937 4.81329 6.92777 4.88477 6.92777H5.69339V19.3339C5.69315 19.5467 5.73485 19.7573 5.81612 19.9539C5.89739 20.1505 6.01663 20.3292 6.16701 20.4796C6.31739 20.6301 6.49596 20.7495 6.69251 20.8308C6.88906 20.9122 7.09973 20.954 7.31247 20.9539H17.0205C17.233 20.9539 17.4434 20.9121 17.6397 20.8307C17.836 20.7494 18.0144 20.6302 18.1647 20.48C18.3149 20.3297 18.4341 20.1513 18.5154 19.955C18.5968 19.7587 18.6386 19.5483 18.6386 19.3358V6.92869H19.4472C19.5187 6.92869 19.5873 6.90029 19.6378 6.84974C19.6884 6.7992 19.7168 6.73064 19.7168 6.65915V6.11915C19.7168 6.04783 19.6885 5.97941 19.6382 5.92889C19.5878 5.87836 19.5195 5.84986 19.4482 5.84961L19.4463 5.85054ZM10.3863 4.98469C10.4367 4.91791 10.5018 4.86366 10.5765 4.8262C10.6513 4.78873 10.7338 4.76905 10.8174 4.76869H13.5146C13.5983 4.76905 13.6807 4.78873 13.7555 4.8262C13.8302 4.86366 13.8953 4.91791 13.9457 4.98469L14.5919 5.84777H9.73923L10.3863 4.98469ZM17.5595 19.3321C17.5595 19.475 17.5027 19.6122 17.4017 19.7133C17.3006 19.8144 17.1634 19.8712 17.0205 19.8712H7.31247C7.16949 19.8712 7.03238 19.8144 6.93128 19.7133C6.83018 19.6122 6.77339 19.475 6.77339 19.3321V6.92869H17.5605L17.5595 19.3321ZM11.8965 18.2558H12.4355C12.507 18.2558 12.5756 18.2274 12.6261 18.1768C12.6767 18.1263 12.7051 18.0577 12.7051 17.9862V8.81638C12.7051 8.7449 12.6767 8.67634 12.6261 8.62579C12.5756 8.57524 12.507 8.54684 12.4355 8.54684H11.8965C11.825 8.54684 11.7564 8.57524 11.7059 8.62579C11.6553 8.67634 11.6269 8.7449 11.6269 8.81638V17.9853C11.6268 18.0208 11.6337 18.0559 11.6472 18.0887C11.6607 18.1215 11.6805 18.1514 11.7055 18.1765C11.7306 18.2016 11.7603 18.2216 11.7931 18.2352C11.8259 18.2488 11.861 18.2558 11.8965 18.2558Z" fill="black"/>
</g>
</g>
<defs>
<clipPath id="clip0_229_1279">
<rect width="24" height="24" fill="white"/>
</clipPath>
</defs>
</svg>
