<svg width="124" height="20" viewBox="0 0 124 20" fill="none" xmlns="http://www.w3.org/2000/svg">
<path d="M19.1298 6.81866L13.6222 6.27051C13.275 6.23728 12.9749 6.00474 12.8331 5.65591L10.8603 0.622898C10.5447 -0.207633 9.42405 -0.207633 9.10841 0.622898L7.15147 5.65591C7.02522 6.00474 6.70958 6.23728 6.36238 6.27051L0.85455 6.81866C0.0338988 6.90171 -0.297518 7.9814 0.31797 8.56277L4.46857 12.3998C4.73686 12.649 4.84734 13.0144 4.76843 13.3798L3.52167 18.7615C3.33229 19.6088 4.20028 20.3063 4.92624 19.858L9.51874 17.0174C9.81859 16.8347 10.1816 16.8347 10.4814 17.0174L15.0741 19.858C15.8 20.3063 16.668 19.6254 16.4785 18.7615L15.2475 13.3798C15.1686 13.0144 15.2791 12.649 15.5474 12.3998L19.698 8.56277C20.2977 7.9814 19.9505 6.90171 19.1298 6.81866Z" fill="black"/>
<path d="M45.1298 6.81866L39.6222 6.27051C39.275 6.23728 38.9749 6.00474 38.8331 5.65591L36.8603 0.622898C36.5447 -0.207633 35.424 -0.207633 35.1084 0.622898L33.1515 5.65591C33.0252 6.00474 32.7096 6.23728 32.3624 6.27051L26.8546 6.81866C26.0339 6.90171 25.7025 7.9814 26.318 8.56277L30.4686 12.3998C30.7369 12.649 30.8473 13.0144 30.7684 13.3798L29.5217 18.7615C29.3323 19.6088 30.2003 20.3063 30.9262 19.858L35.5187 17.0174C35.8186 16.8347 36.1816 16.8347 36.4814 17.0174L41.0741 19.858C41.8 20.3063 42.668 19.6254 42.4785 18.7615L41.2475 13.3798C41.1686 13.0144 41.2791 12.649 41.5474 12.3998L45.698 8.56277C46.2977 7.9814 45.9505 6.90171 45.1298 6.81866Z" fill="black"/>
<path d="M71.1298 6.81866L65.6222 6.27051C65.275 6.23728 64.9749 6.00474 64.8331 5.65591L62.8603 0.622898C62.5447 -0.207633 61.424 -0.207633 61.1084 0.622898L59.1515 5.65591C59.0252 6.00474 58.7096 6.23728 58.3624 6.27051L52.8546 6.81866C52.0339 6.90171 51.7025 7.9814 52.318 8.56277L56.4686 12.3998C56.7369 12.649 56.8473 13.0144 56.7684 13.3798L55.5217 18.7615C55.3323 19.6088 56.2003 20.3063 56.9262 19.858L61.5187 17.0174C61.8186 16.8347 62.1816 16.8347 62.4814 17.0174L67.0741 19.858C67.8 20.3063 68.668 19.6254 68.4785 18.7615L67.2475 13.3798C67.1686 13.0144 67.2791 12.649 67.5474 12.3998L71.698 8.56277C72.2977 7.9814 71.9505 6.90171 71.1298 6.81866Z" fill="black"/>
<path d="M97.1298 6.81866L91.6222 6.27051C91.275 6.23728 90.9749 6.00474 90.8331 5.65591L88.8603 0.622898C88.5447 -0.207633 87.424 -0.207633 87.1084 0.622898L85.1515 5.65591C85.0252 6.00474 84.7096 6.23728 84.3624 6.27051L78.8546 6.81866C78.0339 6.90171 77.7025 7.9814 78.318 8.56277L82.4686 12.3998C82.7369 12.649 82.8473 13.0144 82.7684 13.3798L81.5217 18.7615C81.3323 19.6088 82.2003 20.3063 82.9262 19.858L87.5187 17.0174C87.8186 16.8347 88.1816 16.8347 88.4814 17.0174L93.0741 19.858C93.8 20.3063 94.668 19.6254 94.4785 18.7615L93.2475 13.3798C93.1686 13.0144 93.2791 12.649 93.5474 12.3998L97.698 8.56277C98.2977 7.9814 97.9505 6.90171 97.1298 6.81866Z" fill="black"/>
<path d="M116.368 5.83838L116.368 5.83839L116.37 5.84429C116.575 6.34972 117.025 6.71531 117.574 6.76814C117.574 6.76817 117.574 6.7682 117.575 6.76823L123.079 7.31612C123.08 7.31613 123.08 7.31614 123.08 7.31615C123.26 7.33454 123.407 7.46045 123.471 7.65802C123.535 7.85515 123.494 8.0612 123.353 8.20035L119.208 12.0327L119.207 12.0334C118.805 12.4073 118.644 12.9541 118.759 13.4854L118.759 13.4854L118.76 13.4913L119.99 18.8687C119.99 18.8693 119.99 18.8699 119.991 18.8705C120.042 19.1068 119.95 19.3 119.812 19.408C119.677 19.5133 119.506 19.5368 119.337 19.4326L114.744 16.5922L114.742 16.5904C114.282 16.3103 113.718 16.3103 113.259 16.5904L113.256 16.5922L108.664 19.4326C108.663 19.4326 108.663 19.4326 108.663 19.4327C108.499 19.5343 108.328 19.5119 108.191 19.4032C108.048 19.2908 107.96 19.0962 108.009 18.8722C108.009 18.8716 108.01 18.8711 108.01 18.8706L109.256 13.4927L109.256 13.4927L109.257 13.4854C109.372 12.9541 109.211 12.4073 108.809 12.0334L108.808 12.0327L104.66 8.19775C104.508 8.05372 104.466 7.84447 104.526 7.65075C104.585 7.45753 104.726 7.3343 104.905 7.31614C104.905 7.31613 104.905 7.31613 104.905 7.31612L110.41 6.76823C110.41 6.7682 110.411 6.76817 110.411 6.76814C110.944 6.71679 111.425 6.36284 111.619 5.83218L113.574 0.804093L113.574 0.804099L113.576 0.800524C113.728 0.399825 114.241 0.399825 114.393 0.800524L114.393 0.800533L114.395 0.805361L116.368 5.83838Z" stroke="black"/>
</svg>
